<?xml version="1.0" encoding="UTF-8"?>
<svg width="400px" height="470px" viewBox="0 0 400 470" version="1.1" xmlns="http://www.w3.org/2000/svg" xmlns:xlink="http://www.w3.org/1999/xlink">
    <!-- Generator: Sketch 53.2 (72643) - https://sketchapp.com -->
    <title>3 Hades Cerberus V2</title>
    <desc>Created with Sketch.</desc>
    <g id="3-Hades-Cerberus-V2" stroke="none" stroke-width="1" fill="none" fill-rule="evenodd">
        <g id="3-Hades-Cerberus-V1" transform="translate(136.000000, 72.000000)">
            <g id="Group" transform="translate(0.000000, -2.000000)">
                <path d="M134.359966,57 C142.359085,64.2048193 161.506213,76.9186279 191.801351,95.1414259 L191.801351,132 L252,198.08694 L176.738463,236.957502 C167.366998,213.816573 153.593865,202.814904 135.419064,203.952495 C108.156862,205.658882 84.8157501,218.976673 79.3163153,268.732192 C78.0231191,280.432239 46.6816233,134.323595 60.7335501,122.765127 C61.4500172,122.175795 133.777867,56.475703 134.359966,57 Z" id="Path-4" fill="#50E3C2"></path>
                <path d="M3,170.204296 C3.65509759,154.777835 4.16131992,146.594781 4.51866701,145.655134 C15.9830694,115.509403 41.0785804,83.2910247 79.8052002,49 C81.27939,47.6946582 80.0746133,31.907118 128.361532,15.4042971 C135.209562,13.0638742 145.159194,8.10390393 158.210428,0.524386358 C136.311,25.6366429 129.360846,41.7951807 137.359966,49 C145.359085,56.2048193 164.506213,68.9186279 194.801351,87.1414259 L194.801351,124 L249.085633,194.954501 L179.738463,228.957502 C169.691737,206.751823 153.768229,196.964014 131.967939,199.594074 C120.016332,201.035957 89.8793808,214.017827 84.3799459,263.773345 C83.4738575,271.971078 60.4226238,283.392409 15.2262448,298.037337 L3,274.561637 L3,170.204296 Z" id="Path-4" fill="#50E3C2"></path>
                <path d="M0,173.204296 C0.655097588,157.777835 1.16131992,149.594781 1.51866701,148.655134 C12.9830694,118.509403 38.0785804,86.2910247 76.8052002,52 C78.27939,50.6946582 77.0746133,34.907118 125.361532,18.4042971 C132.209562,16.0638742 142.159194,11.1039039 155.210428,3.52438636 C133.311,28.6366429 126.360846,44.7951807 134.359966,52 C142.359085,59.2048193 161.506213,71.9186279 191.801351,90.1414259 L191.801351,127 L246.085633,197.954501 L176.738463,231.957502 C166.691737,209.751823 150.768229,199.964014 128.967939,202.594074 C117.016332,204.035957 86.8793808,217.017827 81.3799459,266.773345 C80.4738575,274.971078 57.4226238,286.392409 12.2262448,301.037337 L0,277.561637 L0,173.204296 Z" id="Path-4" fill="#000000"></path>
                <polygon id="Path-5" fill="#FFFFFF" points="157.275422 104.257971 132.651163 94.3076923 155.018972 118.765127"></polygon>
            </g>
        </g>
        <g id="3-Hades-Cerberus-V1">
            <g id="Group" transform="translate(0.000000, -2.000000)">
                <path d="M134.359966,57 C142.359085,64.2048193 161.506213,76.9186279 191.801351,95.1414259 L191.801351,132 L252,198.08694 L176.738463,236.957502 C167.366998,213.816573 153.593865,202.814904 135.419064,203.952495 C108.156862,205.658882 84.8157501,218.976673 79.3163153,268.732192 C78.0231191,280.432239 46.6816233,134.323595 60.7335501,122.765127 C61.4500172,122.175795 133.777867,56.475703 134.359966,57 Z" id="Path-4" fill="#50E3C2"></path>
                <path d="M3,170.204296 C3.65509759,154.777835 4.16131992,146.594781 4.51866701,145.655134 C15.9830694,115.509403 41.0785804,83.2910247 79.8052002,49 C81.27939,47.6946582 80.0746133,31.907118 128.361532,15.4042971 C135.209562,13.0638742 145.159194,8.10390393 158.210428,0.524386358 C136.311,25.6366429 129.360846,41.7951807 137.359966,49 C145.359085,56.2048193 164.506213,68.9186279 194.801351,87.1414259 L194.801351,124 L249.085633,194.954501 L179.738463,228.957502 C169.691737,206.751823 153.768229,196.964014 131.967939,199.594074 C120.016332,201.035957 89.8793808,214.017827 84.3799459,263.773345 C83.4738575,271.971078 60.4226238,283.392409 15.2262448,298.037337 L3,274.561637 L3,170.204296 Z" id="Path-4" fill="#50E3C2"></path>
                <path d="M0,173.204296 C0.655097588,157.777835 1.16131992,149.594781 1.51866701,148.655134 C12.9830694,118.509403 38.0785804,86.2910247 76.8052002,52 C78.27939,50.6946582 77.0746133,34.907118 125.361532,18.4042971 C132.209562,16.0638742 142.159194,11.1039039 155.210428,3.52438636 C133.311,28.6366429 126.360846,44.7951807 134.359966,52 C142.359085,59.2048193 161.506213,71.9186279 191.801351,90.1414259 L191.801351,127 L246.085633,197.954501 L176.738463,231.957502 C166.691737,209.751823 150.768229,199.964014 128.967939,202.594074 C117.016332,204.035957 86.8793808,217.017827 81.3799459,266.773345 C80.4738575,274.971078 57.4226238,286.392409 12.2262448,301.037337 L0,277.561637 L0,173.204296 Z" id="Path-4" fill="#000000"></path>
                <polygon id="Path-5" fill="#FFFFFF" points="157.275422 104.257971 132.651163 94.3076923 155.018972 118.765127"></polygon>
            </g>
        </g>
        <g id="3-Hades-Cerberus-V1" transform="translate(0.000000, 169.000000)">
            <g id="Group" transform="translate(0.000000, -2.000000)">
                <path d="M134.359966,57 C142.359085,64.2048193 161.506213,76.9186279 191.801351,95.1414259 L191.801351,132 L252,198.08694 L176.738463,236.957502 C167.366998,213.816573 153.593865,202.814904 135.419064,203.952495 C108.156862,205.658882 84.8157501,218.976673 79.3163153,268.732192 C78.0231191,280.432239 46.6816233,134.323595 60.7335501,122.765127 C61.4500172,122.175795 133.777867,56.475703 134.359966,57 Z" id="Path-4" fill="#50E3C2"></path>
                <path d="M3,170.204296 C3.65509759,154.777835 4.16131992,146.594781 4.51866701,145.655134 C15.9830694,115.509403 41.0785804,83.2910247 79.8052002,49 C81.27939,47.6946582 80.0746133,31.907118 128.361532,15.4042971 C135.209562,13.0638742 145.159194,8.10390393 158.210428,0.524386358 C136.311,25.6366429 129.360846,41.7951807 137.359966,49 C145.359085,56.2048193 164.506213,68.9186279 194.801351,87.1414259 L194.801351,124 L249.085633,194.954501 L179.738463,228.957502 C169.691737,206.751823 153.768229,196.964014 131.967939,199.594074 C120.016332,201.035957 89.8793808,214.017827 84.3799459,263.773345 C83.4738575,271.971078 60.4226238,283.392409 15.2262448,298.037337 L3,274.561637 L3,170.204296 Z" id="Path-4" fill="#50E3C2"></path>
                <path d="M0,173.204296 C0.655097588,157.777835 1.16131992,149.594781 1.51866701,148.655134 C12.9830694,118.509403 38.0785804,86.2910247 76.8052002,52 C78.27939,50.6946582 77.0746133,34.907118 125.361532,18.4042971 C132.209562,16.0638742 142.159194,11.1039039 155.210428,3.52438636 C133.311,28.6366429 126.360846,44.7951807 134.359966,52 C142.359085,59.2048193 161.506213,71.9186279 191.801351,90.1414259 L191.801351,127 L246.085633,197.954501 L176.738463,231.957502 C166.691737,209.751823 150.768229,199.964014 128.967939,202.594074 C117.016332,204.035957 86.8793808,217.017827 81.3799459,266.773345 C80.4738575,274.971078 57.4226238,286.392409 12.2262448,301.037337 L0,277.561637 L0,173.204296 Z" id="Path-4" fill="#000000"></path>
                <polygon id="Path-5" fill="#FFFFFF" points="157.275422 104.257971 132.651163 94.3076923 155.018972 118.765127"></polygon>
            </g>
        </g>
    </g>
</svg>