<?xml version="1.0" encoding="UTF-8"?>
<svg width="627px" height="304px" viewBox="0 0 627 304" version="1.1" xmlns="http://www.w3.org/2000/svg" xmlns:xlink="http://www.w3.org/1999/xlink">
    <!-- Generator: Sketch 54.1 (76490) - https://sketchapp.com -->
    <title>7 Hep Anvil V1</title>
    <desc>Created with Sketch.</desc>
    <g id="7-Hep-Anvil-V1" stroke="none" stroke-width="1" fill="none" fill-rule="evenodd">
        <path d="M-5.68434189e-14,19.5877097 C133.859428,25.6323704 202.992995,27.1435355 207.400701,24.1212052 C211.808408,21.0988749 223.748095,13.0584732 243.219764,-2.6998827e-14 L626.535504,-2.84217094e-14 L626.535504,19.5877097 L618.785369,41.6154617 C520.254288,52.5686653 457.294582,71.3980557 424.544909,134.885537 C402.711794,177.210524 421.130337,204.916848 479.800538,218.004509 L519.261581,255.762946 L517.856578,303.146344 L444.623273,303.808947 C434.712952,301.061519 428.798802,297.816116 426.880821,294.072739 C424.003849,288.457672 401.039369,270.63141 352.310653,271.576577 C303.581937,272.521743 287.977106,280.176892 277.014495,288.457672 C269.706087,293.978191 264.087403,297.535493 260.158442,299.129579 C242.475595,300.655428 218.713137,300.655428 188.871068,299.129579 L188.871068,255.762946 L219.390872,218.004509 C253.902478,212.102857 272.635508,203.758798 275.589963,192.972331 C279.527067,178.598289 286.399716,122.600949 215.959428,125.467674 C130.626114,128.940503 58.6396375,93.6471819 -5.68434189e-14,19.5877097 Z" id="Path-5" fill="#5A5959"></path>
    </g>
</svg>