<?xml version="1.0" encoding="UTF-8"?>
<svg width="350px" height="500px" viewBox="0 0 350 500" version="1.1" xmlns="http://www.w3.org/2000/svg" xmlns:xlink="http://www.w3.org/1999/xlink">
    <!-- Generator: Sketch 54.1 (76490) - https://sketchapp.com -->
    <title>Caduceus</title>
    <desc>Created with Sketch.</desc>
    <g id="Caduceus" stroke="none" stroke-width="1" fill="none" fill-rule="evenodd">
        <g id="Group">
            <g id="Wings" fill="#FFC000" fill-rule="nonzero">
                <path d="M343.202267,18.9838421 C329.237775,39.8137066 306.753047,43.8822212 282.859704,46.1013644 C265.813087,47.6915983 248.678255,49.6245238 232.033004,53.1555711 C222.372136,55.2066326 213.51228,60.5834688 204.49583,64.8126392 C201.681396,66.1401783 199.508306,68.6523885 197.386121,71.1292793 C223.203342,51.8032095 254.781295,51.8316399 285.31555,48.4152664 C296.789822,47.1386367 308.262485,45.3416347 320.590048,43.6774153 C316.390234,50.6654995 310.550041,55.0938913 303.272506,56.6320871 C292.387941,58.8921745 281.206821,60.1105944 270.127694,61.3175087 C254.828737,63.043335 239.258696,63.7157474 224.076901,66.2106666 C216.31392,67.4871509 209.146903,71.7694484 202.093572,75.6973079 C227.747443,65.4061892 255.532732,67.9890383 282.059689,63.7085424 L283.097203,65.1546439 C279.8137,67.3913491 276.852076,70.610669 273.169475,71.6398124 C266.055191,73.5025474 258.774407,74.7816032 251.41094,75.4622557 C238.368364,76.8640411 225.247656,77.7452135 212.191888,79.0050391 C209.463473,79.2802882 206.865962,80.6439896 202.83989,81.9558886 L252.248859,78.3505651 L253.160226,80.2456776 C249.110732,82.2316148 245.255763,85.2588985 240.947207,85.9549291 C234.140388,87.1161576 227.035147,86.6325599 220.059493,86.8116554 C214.333555,86.9473782 208.580793,86.6572617 202.907151,87.2070775 C191.802077,88.2719919 184.577476,94.5527908 179.403896,104.210605 C180.407627,74.1270841 204.469801,44.0333526 236.132606,34.3879524 C249.090755,30.4313718 262.897419,28.665369 276.486574,26.6739777 C298.667702,23.4087112 320.952761,20.7587511 343.198791,17.8603112 L343.202267,18.9838421 Z" id="Path" transform="translate(261.303082, 61.035458) rotate(10.000000) translate(-261.303082, -61.035458) "></path>
                <path d="M97.5697211,75.2396872 L145.4499,78.7793658 L145.74603,77.5009951 C137.556583,76.1665353 129.41923,74.4179268 121.17736,73.6040699 C109.417725,72.458269 97.5279103,72.3300975 85.7685318,71.1014988 C78.4030457,70.3321961 71.5256296,67.8344495 66.454279,60.5169672 C94.15921,64.8771467 121.91081,62.3650327 147.360008,73.1786458 C137.551811,65.3911189 125.799679,61.8205266 113.443061,60.6529484 C96.8321036,59.0847757 80.0774576,58.7944939 63.4924197,57.0606458 C55.7759978,56.1217819 48.2573107,54.1287886 41.1784629,51.1458409 C36.6998557,49.326576 33.3079857,45.2565449 29.4304245,42.1461215 L30.5149294,40.6168786 C35.5937042,41.428863 40.7608902,42.406163 45.9165438,43.004999 C63.5295643,45.0549713 81.2331184,46.5842207 98.7684916,49.0957347 C108.801448,50.4105965 118.648461,52.7190365 128.142432,55.9818821 C137.177074,59.2298397 145.379888,64.4557141 154.425257,68.3423572 C148.479357,64.4932713 142.827134,60.1583074 136.523673,56.9135817 C119.528386,48.1787686 100.671427,45.8133518 81.6346803,44.0753921 C68.4017143,42.8514315 55.0923086,41.6986803 42.0917721,39.2556901 C26.9964285,36.4171366 15.1560634,28.5177245 6.80127636,14.9298366 C16.8951996,16.5894901 26.0358599,18.4177377 35.2675295,19.5714952 C54.7467702,21.9940941 74.4199643,23.3160659 93.7573456,26.425143 C137.8918,33.5132236 163.526512,58.2716246 170.601625,99.5177209 C170.517454,100.12298 170.349078,100.715953 170.100742,101.28169 C162.07265,84.7475678 147.292438,82.7005076 130.572023,83.6639004 C123.415851,84.1945947 116.223256,83.9712249 109.131052,82.99804 C104.763225,82.3257556 100.821818,79.3219864 96.6866033,77.3715312 L97.5697211,75.2396872 Z" id="Path" transform="translate(88.701450, 58.105763) rotate(-10.000000) translate(-88.701450, -58.105763) "></path>
            </g>
            <path d="M170.267123,498.5 L181.650685,498.5 L181.650685,37.9343466 L182.44947,37.5119274 C186.642999,35.2943128 189.321918,30.9392526 189.321918,26.1081778 C189.321918,18.9894065 183.553614,13.21875 176.438356,13.21875 C169.323098,13.21875 163.554795,18.9894065 163.554795,26.1081778 C163.554795,30.585606 165.853349,34.6666756 169.568455,37.0144588 L170.267123,37.4559867 L170.267123,498.5 Z" id="Combined-Shape" stroke="#FFC200" stroke-width="3" fill="#F8E71C"></path>
            <g id="Snakes" transform="translate(99.726027, 86.914062)">
                <g id="Right-Snake" transform="translate(27.808219, 7.812500)">
                    <path d="M25.890411,176.757812 C56.4226594,176.757812 54.1489813,142.415558 25.890411,150.705068" id="Path-2-Copy-6" stroke="#FFC200" stroke-width="10" transform="translate(36.917808, 163.085938) scale(-1, 1) translate(-36.917808, -163.085938) "></path>
                    <path d="M47.9452055,150.390625 C86.3013699,150.390625 86.3013699,114.257812 47.9452055,114.257812" id="Path-2-Copy-2" stroke="#FFC200" stroke-width="10"></path>
                    <path d="M0,114.257812 C63.9269406,114.257812 63.9269406,60.546875 0,60.546875" id="Path-2-Copy-4" stroke="#FFC200" stroke-width="10" transform="translate(23.972603, 87.402344) scale(-1, 1) translate(-23.972603, -87.402344) "></path>
                    <path d="M46.9863014,59.5703125 C145.974937,59.5703125 147.423607,-6.95539953e-14 80.0266615,-5.68434189e-14" id="Path-2-Copy-3" stroke="#FFC200" stroke-width="10"></path>
                    <rect id="Rectangle-Copy-3" fill="#F8E71C" x="44.109589" y="56.640625" width="8.63013699" height="9.765625"></rect>
                    <rect id="Rectangle-Copy-4" fill="#F8E71C" x="44.109589" y="145.507812" width="8.63013699" height="9.765625"></rect>
                </g>
                <g id="L-SNAKE" transform="translate(0.000000, 7.812500)" stroke="#FFC200" stroke-width="10">
                    <g id="Left-snake">
                        <path d="M75.7534247,183.59375 C105.799087,183.59375 105.799087,148.430946 75.7534247,148.430946" id="Path-2-Copy-7"></path>
                        <path d="M46.9863014,148.430946 C85.3424658,148.430946 85.3424658,112.055631 46.9863014,112.055631" id="Path-2-Copy-5" transform="translate(61.369863, 130.243289) scale(-1, 1) translate(-61.369863, -130.243289) "></path>
                        <path d="M75.7534247,112.055631 C139.680365,112.055631 139.680365,57.4926594 75.7534247,57.4926594" id="Path-2-Copy"></path>
                        <path d="M0,57.4926594 C94.782194,57.4926594 95.3823182,1.27659348e-14 30.8493513,0" id="Path-2-Copy-3" transform="translate(37.876712, 28.746330) scale(-1, 1) translate(-37.876712, -28.746330) "></path>
                    </g>
                </g>
                <rect id="Rectangle" fill="#F8E71C" x="71.9178082" y="178.710938" width="8.63013699" height="21.484375"></rect>
                <path d="M110.152285,14.4903356 C120.686024,15.3222854 129.674065,12.7883342 130.227635,8.8305972 C130.781205,4.87286018 122.69068,0.990051792 112.15694,0.158101945 C101.623201,-0.673847902 92.6351601,1.86010327 92.0815898,5.8178403 C91.5280195,9.77557732 99.6185452,13.6583857 110.152285,14.4903356 Z" id="Oval" fill="#FFC200"></path>
                <path d="M41.1980361,14.4903356 C51.7317756,13.6583857 59.8223013,9.77557732 59.268731,5.8178403 C58.7151607,1.86010327 49.7271201,-0.673847902 39.1933806,0.158101945 C28.6596411,0.990051792 20.5691154,4.87286018 21.1226857,8.8305972 C21.676256,12.7883342 30.6642965,15.3222854 41.1980361,14.4903356 Z" id="Oval-Copy" fill="#FFC200"></path>
            </g>
        </g>
    </g>
</svg>