<?xml version="1.0" encoding="UTF-8"?>
<svg width="1024px" height="2846px" viewBox="0 0 1024 2846" version="1.1" xmlns="http://www.w3.org/2000/svg" xmlns:xlink="http://www.w3.org/1999/xlink">
    <!-- Generator: Sketch 54.1 (76490) - https://sketchapp.com -->
    <title>Night Sky Gradient</title>
    <desc>Created with Sketch.</desc>
    <defs>
        <linearGradient x1="49.7822924%" y1="0%" x2="50%" y2="100%" id="linearGradient-1">
            <stop stop-color="#4A90E2" stop-opacity="0.776169143" offset="0%"></stop>
            <stop stop-color="#161744" stop-opacity="0.9327565" offset="48.6776816%"></stop>
            <stop stop-color="#0B0B20" stop-opacity="0.967846679" offset="62.6605976%"></stop>
            <stop stop-color="#000000" offset="100%"></stop>
        </linearGradient>
    </defs>
    <g id="Night-Sky-Gradient" stroke="none" stroke-width="1" fill="none" fill-rule="evenodd">
        <rect id="Background-Copy-2" fill="url(#linearGradient-1)" transform="translate(512.000000, 1808.000000) scale(1, -1) translate(-512.000000, -1808.000000) " x="0" y="770" width="1024" height="2076"></rect>
        <g id="Stars" transform="translate(0.000000, 770.000000)" fill="#FFFFFF">
            <g id="stars">
                <ellipse id="Oval" cx="445.517045" cy="0.498717949" rx="1" ry="1"></ellipse>
                <ellipse id="Oval-Copy" cx="149.5125" cy="70.3192308" rx="1.51022727" ry="1.49615385"></ellipse>
                <ellipse id="Oval-Copy-7" cx="0.503409091" cy="149.116667" rx="1" ry="1"></ellipse>
                <ellipse id="Oval-Copy-4" cx="233.078409" cy="346.608974" rx="1" ry="1"></ellipse>
                <ellipse id="Oval-Copy-2" cx="405.244318" cy="145.126923" rx="1" ry="1"></ellipse>
                <ellipse id="Oval-Copy-3" cx="71.9875" cy="265.816667" rx="1" ry="1"></ellipse>
                <ellipse id="Oval-Copy-5" cx="243.146591" cy="184.026923" rx="1" ry="1"></ellipse>
                <ellipse id="Oval-Copy-6" cx="441.489773" cy="387.503846" rx="1" ry="1"></ellipse>
            </g>
        </g>
        <g id="Stars" transform="translate(766.500000, 964.500000) scale(-1, -1) translate(-766.500000, -964.500000) translate(545.000000, 770.000000)" fill="#FFFFFF">
            <g id="stars">
                <ellipse id="Oval" cx="445.517045" cy="0.498717949" rx="1" ry="1"></ellipse>
                <ellipse id="Oval-Copy" cx="149.5125" cy="70.3192308" rx="1.51022727" ry="1.49615385"></ellipse>
                <ellipse id="Oval-Copy-7" cx="0.503409091" cy="149.116667" rx="1" ry="1"></ellipse>
                <ellipse id="Oval-Copy-4" cx="233.078409" cy="346.608974" rx="1" ry="1"></ellipse>
                <ellipse id="Oval-Copy-2" cx="405.244318" cy="145.126923" rx="1" ry="1"></ellipse>
                <ellipse id="Oval-Copy-3" cx="71.9875" cy="265.816667" rx="1" ry="1"></ellipse>
                <ellipse id="Oval-Copy-5" cx="243.146591" cy="184.026923" rx="1" ry="1"></ellipse>
                <ellipse id="Oval-Copy-6" cx="441.489773" cy="387.503846" rx="1" ry="1"></ellipse>
            </g>
        </g>
        <rect id="Background-Copy-3" fill="#000000" x="0" y="0" width="1024" height="889"></rect>
        <g id="Star-Sky" transform="translate(0.000000, 2.000000)" fill="#FFFFFF">
            <g id="Stars">
                <g transform="translate(139.000000, 197.000000)">
                    <g id="stars">
                        <ellipse id="Oval" cx="445.517045" cy="0.498717949" rx="1" ry="1"></ellipse>
                        <ellipse id="Oval-Copy" cx="149.5125" cy="70.3192308" rx="1.51022727" ry="1.49615385"></ellipse>
                        <ellipse id="Oval-Copy-7" cx="0.503409091" cy="149.116667" rx="1" ry="1"></ellipse>
                        <ellipse id="Oval-Copy-4" cx="233.078409" cy="346.608974" rx="1" ry="1"></ellipse>
                        <ellipse id="Oval-Copy-2" cx="405.244318" cy="145.126923" rx="1" ry="1"></ellipse>
                        <ellipse id="Oval-Copy-3" cx="71.9875" cy="265.816667" rx="1" ry="1"></ellipse>
                        <ellipse id="Oval-Copy-5" cx="243.146591" cy="184.026923" rx="1" ry="1"></ellipse>
                        <ellipse id="Oval-Copy-6" cx="441.489773" cy="387.503846" rx="1" ry="1"></ellipse>
                    </g>
                </g>
                <g transform="translate(582.000000, 379.000000)">
                    <g id="stars">
                        <ellipse id="Oval" cx="445.517045" cy="0.498717949" rx="1" ry="1"></ellipse>
                        <ellipse id="Oval-Copy" cx="149.5125" cy="70.3192308" rx="1.51022727" ry="1.49615385"></ellipse>
                        <ellipse id="Oval-Copy-7" cx="0.503409091" cy="149.116667" rx="1" ry="1"></ellipse>
                        <ellipse id="Oval-Copy-4" cx="233.078409" cy="346.608974" rx="1" ry="1"></ellipse>
                        <ellipse id="Oval-Copy-2" cx="405.244318" cy="145.126923" rx="1" ry="1"></ellipse>
                        <ellipse id="Oval-Copy-3" cx="71.9875" cy="265.816667" rx="1" ry="1"></ellipse>
                        <ellipse id="Oval-Copy-5" cx="243.146591" cy="184.026923" rx="1" ry="1"></ellipse>
                        <ellipse id="Oval-Copy-6" cx="441.489773" cy="387.503846" rx="1" ry="1"></ellipse>
                    </g>
                </g>
                <g transform="translate(802.500000, 194.500000) scale(-1, 1) translate(-802.500000, -194.500000) translate(581.000000, 0.000000)">
                    <g id="stars">
                        <ellipse id="Oval" cx="445.517045" cy="0.498717949" rx="1" ry="1"></ellipse>
                        <ellipse id="Oval-Copy" cx="149.5125" cy="70.3192308" rx="1.51022727" ry="1.49615385"></ellipse>
                        <ellipse id="Oval-Copy-7" cx="0.503409091" cy="149.116667" rx="1" ry="1"></ellipse>
                        <ellipse id="Oval-Copy-4" cx="233.078409" cy="346.608974" rx="1" ry="1"></ellipse>
                        <ellipse id="Oval-Copy-2" cx="405.244318" cy="145.126923" rx="1" ry="1"></ellipse>
                        <ellipse id="Oval-Copy-3" cx="71.9875" cy="265.816667" rx="1" ry="1"></ellipse>
                        <ellipse id="Oval-Copy-5" cx="243.146591" cy="184.026923" rx="1" ry="1"></ellipse>
                        <ellipse id="Oval-Copy-6" cx="441.489773" cy="387.503846" rx="1" ry="1"></ellipse>
                    </g>
                </g>
                <g transform="translate(751.886810, 383.946427) scale(-1, -1) rotate(65.000000) translate(-751.886810, -383.946427) translate(530.386810, 189.446427)">
                    <g id="stars">
                        <ellipse id="Oval" cx="445.517045" cy="0.498717949" rx="1" ry="1"></ellipse>
                        <ellipse id="Oval-Copy" cx="149.5125" cy="70.3192308" rx="1.51022727" ry="1.49615385"></ellipse>
                        <ellipse id="Oval-Copy-7" cx="0.503409091" cy="149.116667" rx="1" ry="1"></ellipse>
                        <ellipse id="Oval-Copy-4" cx="233.078409" cy="346.608974" rx="1" ry="1"></ellipse>
                        <ellipse id="Oval-Copy-2" cx="405.244318" cy="145.126923" rx="1" ry="1"></ellipse>
                        <ellipse id="Oval-Copy-3" cx="71.9875" cy="265.816667" rx="1" ry="1"></ellipse>
                        <ellipse id="Oval-Copy-5" cx="243.146591" cy="184.026923" rx="1" ry="1"></ellipse>
                        <ellipse id="Oval-Copy-6" cx="441.489773" cy="387.503846" rx="1" ry="1"></ellipse>
                    </g>
                </g>
                <g transform="translate(289.000000, 229.000000)">
                    <g id="stars">
                        <ellipse id="Oval" cx="445.517045" cy="0.498717949" rx="1" ry="1"></ellipse>
                        <ellipse id="Oval-Copy" cx="149.5125" cy="70.3192308" rx="1.51022727" ry="1.49615385"></ellipse>
                        <ellipse id="Oval-Copy-7" cx="0.503409091" cy="149.116667" rx="1" ry="1"></ellipse>
                        <ellipse id="Oval-Copy-4" cx="233.078409" cy="346.608974" rx="1" ry="1"></ellipse>
                        <ellipse id="Oval-Copy-2" cx="405.244318" cy="145.126923" rx="1" ry="1"></ellipse>
                        <ellipse id="Oval-Copy-3" cx="71.9875" cy="265.816667" rx="1" ry="1"></ellipse>
                        <ellipse id="Oval-Copy-5" cx="243.146591" cy="184.026923" rx="1" ry="1"></ellipse>
                        <ellipse id="Oval-Copy-6" cx="441.489773" cy="387.503846" rx="1" ry="1"></ellipse>
                    </g>
                </g>
                <g transform="translate(231.000000, 296.000000)">
                    <g id="stars">
                        <ellipse id="Oval" cx="445.517045" cy="0.498717949" rx="1" ry="1"></ellipse>
                        <ellipse id="Oval-Copy" cx="149.5125" cy="70.3192308" rx="1.51022727" ry="1.49615385"></ellipse>
                        <ellipse id="Oval-Copy-7" cx="0.503409091" cy="149.116667" rx="1" ry="1"></ellipse>
                        <ellipse id="Oval-Copy-4" cx="233.078409" cy="346.608974" rx="1" ry="1"></ellipse>
                        <ellipse id="Oval-Copy-2" cx="405.244318" cy="145.126923" rx="1" ry="1"></ellipse>
                        <ellipse id="Oval-Copy-3" cx="71.9875" cy="265.816667" rx="1" ry="1"></ellipse>
                        <ellipse id="Oval-Copy-5" cx="243.146591" cy="184.026923" rx="1" ry="1"></ellipse>
                        <ellipse id="Oval-Copy-6" cx="441.489773" cy="387.503846" rx="1" ry="1"></ellipse>
                    </g>
                </g>
                <g transform="translate(274.608918, 318.064866) rotate(-5.000000) translate(-274.608918, -318.064866) translate(53.108918, 123.564866)">
                    <g id="stars">
                        <ellipse id="Oval" cx="445.517045" cy="0.498717949" rx="1" ry="1"></ellipse>
                        <ellipse id="Oval-Copy" cx="149.5125" cy="70.3192308" rx="1.51022727" ry="1.49615385"></ellipse>
                        <ellipse id="Oval-Copy-7" cx="0.503409091" cy="149.116667" rx="1" ry="1"></ellipse>
                        <ellipse id="Oval-Copy-4" cx="233.078409" cy="346.608974" rx="1" ry="1"></ellipse>
                        <ellipse id="Oval-Copy-2" cx="405.244318" cy="145.126923" rx="1" ry="1"></ellipse>
                        <ellipse id="Oval-Copy-3" cx="71.9875" cy="265.816667" rx="1" ry="1"></ellipse>
                        <ellipse id="Oval-Copy-5" cx="243.146591" cy="184.026923" rx="1" ry="1"></ellipse>
                        <ellipse id="Oval-Copy-6" cx="441.489773" cy="387.503846" rx="1" ry="1"></ellipse>
                    </g>
                </g>
                <g>
                    <g id="stars">
                        <ellipse id="Oval" cx="445.517045" cy="0.498717949" rx="1" ry="1"></ellipse>
                        <ellipse id="Oval-Copy" cx="149.5125" cy="70.3192308" rx="1.51022727" ry="1.49615385"></ellipse>
                        <ellipse id="Oval-Copy-7" cx="0.503409091" cy="149.116667" rx="1" ry="1"></ellipse>
                        <ellipse id="Oval-Copy-4" cx="233.078409" cy="346.608974" rx="1" ry="1"></ellipse>
                        <ellipse id="Oval-Copy-2" cx="405.244318" cy="145.126923" rx="1" ry="1"></ellipse>
                        <ellipse id="Oval-Copy-3" cx="71.9875" cy="265.816667" rx="1" ry="1"></ellipse>
                        <ellipse id="Oval-Copy-5" cx="243.146591" cy="184.026923" rx="1" ry="1"></ellipse>
                        <ellipse id="Oval-Copy-6" cx="441.489773" cy="387.503846" rx="1" ry="1"></ellipse>
                    </g>
                </g>
                <g transform="translate(202.000000, 162.000000)">
                    <g id="stars">
                        <ellipse id="Oval" cx="445.517045" cy="0.498717949" rx="1" ry="1"></ellipse>
                        <ellipse id="Oval-Copy" cx="149.5125" cy="70.3192308" rx="1.51022727" ry="1.49615385"></ellipse>
                        <ellipse id="Oval-Copy-7" cx="0.503409091" cy="149.116667" rx="1" ry="1"></ellipse>
                        <ellipse id="Oval-Copy-4" cx="233.078409" cy="346.608974" rx="1" ry="1"></ellipse>
                        <ellipse id="Oval-Copy-2" cx="405.244318" cy="145.126923" rx="1" ry="1"></ellipse>
                        <ellipse id="Oval-Copy-3" cx="71.9875" cy="265.816667" rx="1" ry="1"></ellipse>
                        <ellipse id="Oval-Copy-5" cx="243.146591" cy="184.026923" rx="1" ry="1"></ellipse>
                        <ellipse id="Oval-Copy-6" cx="441.489773" cy="387.503846" rx="1" ry="1"></ellipse>
                    </g>
                </g>
                <g transform="translate(714.721258, 304.885111) scale(1, -1) rotate(62.000000) translate(-714.721258, -304.885111) translate(493.221258, 110.385111)">
                    <g id="stars">
                        <ellipse id="Oval" cx="445.517045" cy="0.498717949" rx="1" ry="1"></ellipse>
                        <ellipse id="Oval-Copy" cx="149.5125" cy="70.3192308" rx="1.51022727" ry="1.49615385"></ellipse>
                        <ellipse id="Oval-Copy-7" cx="0.503409091" cy="149.116667" rx="1" ry="1"></ellipse>
                        <ellipse id="Oval-Copy-4" cx="233.078409" cy="346.608974" rx="1" ry="1"></ellipse>
                        <ellipse id="Oval-Copy-2" cx="405.244318" cy="145.126923" rx="1" ry="1"></ellipse>
                        <ellipse id="Oval-Copy-3" cx="71.9875" cy="265.816667" rx="1" ry="1"></ellipse>
                        <ellipse id="Oval-Copy-5" cx="243.146591" cy="184.026923" rx="1" ry="1"></ellipse>
                        <ellipse id="Oval-Copy-6" cx="441.489773" cy="387.503846" rx="1" ry="1"></ellipse>
                    </g>
                </g>
                <g transform="translate(221.500000, 583.500000) scale(1, -1) translate(-221.500000, -583.500000) translate(0.000000, 389.000000)">
                    <g id="stars">
                        <ellipse id="Oval" cx="445.517045" cy="0.498717949" rx="1" ry="1"></ellipse>
                        <ellipse id="Oval-Copy" cx="149.5125" cy="70.3192308" rx="1.51022727" ry="1.49615385"></ellipse>
                        <ellipse id="Oval-Copy-7" cx="0.503409091" cy="149.116667" rx="1" ry="1"></ellipse>
                        <ellipse id="Oval-Copy-4" cx="233.078409" cy="346.608974" rx="1" ry="1"></ellipse>
                        <ellipse id="Oval-Copy-2" cx="405.244318" cy="145.126923" rx="1" ry="1"></ellipse>
                        <ellipse id="Oval-Copy-3" cx="71.9875" cy="265.816667" rx="1" ry="1"></ellipse>
                        <ellipse id="Oval-Copy-5" cx="243.146591" cy="184.026923" rx="1" ry="1"></ellipse>
                        <ellipse id="Oval-Copy-6" cx="441.489773" cy="387.503846" rx="1" ry="1"></ellipse>
                    </g>
                </g>
            </g>
        </g>
    </g>
</svg>