<?xml version="1.0" encoding="UTF-8"?>
<svg width="1024px" height="768px" viewBox="0 0 1024 768" version="1.1" xmlns="http://www.w3.org/2000/svg" xmlns:xlink="http://www.w3.org/1999/xlink">
    <!-- Generator: Sketch 54.1 (76490) - https://sketchapp.com -->
    <title>Night Sky</title>
    <desc>Created with Sketch.</desc>
    <g id="Night-Sky" stroke="none" stroke-width="1" fill="none" fill-rule="evenodd">
        <rect id="Background-Copy-2" fill="#000000" x="0" y="0" width="1024" height="768"></rect>
        <g id="Star-Sky" fill="#FFFFFF">
            <g id="Stars">
                <g transform="translate(139.000000, 197.000000)">
                    <g id="stars">
                        <ellipse id="Oval" cx="445.517045" cy="0.498717949" rx="1" ry="1"></ellipse>
                        <ellipse id="Oval-Copy" cx="149.5125" cy="70.3192308" rx="1.51022727" ry="1.49615385"></ellipse>
                        <ellipse id="Oval-Copy-7" cx="0.503409091" cy="149.116667" rx="1" ry="1"></ellipse>
                        <ellipse id="Oval-Copy-4" cx="233.078409" cy="346.608974" rx="1" ry="1"></ellipse>
                        <ellipse id="Oval-Copy-2" cx="405.244318" cy="145.126923" rx="1" ry="1"></ellipse>
                        <ellipse id="Oval-Copy-3" cx="71.9875" cy="265.816667" rx="1" ry="1"></ellipse>
                        <ellipse id="Oval-Copy-5" cx="243.146591" cy="184.026923" rx="1" ry="1"></ellipse>
                        <ellipse id="Oval-Copy-6" cx="441.489773" cy="387.503846" rx="1" ry="1"></ellipse>
                    </g>
                </g>
                <g transform="translate(582.000000, 379.000000)">
                    <g id="stars">
                        <ellipse id="Oval" cx="445.517045" cy="0.498717949" rx="1" ry="1"></ellipse>
                        <ellipse id="Oval-Copy" cx="149.5125" cy="70.3192308" rx="1.51022727" ry="1.49615385"></ellipse>
                        <ellipse id="Oval-Copy-7" cx="0.503409091" cy="149.116667" rx="1" ry="1"></ellipse>
                        <ellipse id="Oval-Copy-4" cx="233.078409" cy="346.608974" rx="1" ry="1"></ellipse>
                        <ellipse id="Oval-Copy-2" cx="405.244318" cy="145.126923" rx="1" ry="1"></ellipse>
                        <ellipse id="Oval-Copy-3" cx="71.9875" cy="265.816667" rx="1" ry="1"></ellipse>
                        <ellipse id="Oval-Copy-5" cx="243.146591" cy="184.026923" rx="1" ry="1"></ellipse>
                        <ellipse id="Oval-Copy-6" cx="441.489773" cy="387.503846" rx="1" ry="1"></ellipse>
                    </g>
                </g>
                <g transform="translate(802.500000, 194.500000) scale(-1, 1) translate(-802.500000, -194.500000) translate(581.000000, 0.000000)">
                    <g id="stars">
                        <ellipse id="Oval" cx="445.517045" cy="0.498717949" rx="1" ry="1"></ellipse>
                        <ellipse id="Oval-Copy" cx="149.5125" cy="70.3192308" rx="1.51022727" ry="1.49615385"></ellipse>
                        <ellipse id="Oval-Copy-7" cx="0.503409091" cy="149.116667" rx="1" ry="1"></ellipse>
                        <ellipse id="Oval-Copy-4" cx="233.078409" cy="346.608974" rx="1" ry="1"></ellipse>
                        <ellipse id="Oval-Copy-2" cx="405.244318" cy="145.126923" rx="1" ry="1"></ellipse>
                        <ellipse id="Oval-Copy-3" cx="71.9875" cy="265.816667" rx="1" ry="1"></ellipse>
                        <ellipse id="Oval-Copy-5" cx="243.146591" cy="184.026923" rx="1" ry="1"></ellipse>
                        <ellipse id="Oval-Copy-6" cx="441.489773" cy="387.503846" rx="1" ry="1"></ellipse>
                    </g>
                </g>
                <g transform="translate(751.886810, 383.946427) scale(-1, -1) rotate(65.000000) translate(-751.886810, -383.946427) translate(530.386810, 189.446427)">
                    <g id="stars">
                        <ellipse id="Oval" cx="445.517045" cy="0.498717949" rx="1" ry="1"></ellipse>
                        <ellipse id="Oval-Copy" cx="149.5125" cy="70.3192308" rx="1.51022727" ry="1.49615385"></ellipse>
                        <ellipse id="Oval-Copy-7" cx="0.503409091" cy="149.116667" rx="1" ry="1"></ellipse>
                        <ellipse id="Oval-Copy-4" cx="233.078409" cy="346.608974" rx="1" ry="1"></ellipse>
                        <ellipse id="Oval-Copy-2" cx="405.244318" cy="145.126923" rx="1" ry="1"></ellipse>
                        <ellipse id="Oval-Copy-3" cx="71.9875" cy="265.816667" rx="1" ry="1"></ellipse>
                        <ellipse id="Oval-Copy-5" cx="243.146591" cy="184.026923" rx="1" ry="1"></ellipse>
                        <ellipse id="Oval-Copy-6" cx="441.489773" cy="387.503846" rx="1" ry="1"></ellipse>
                    </g>
                </g>
                <g transform="translate(289.000000, 229.000000)">
                    <g id="stars">
                        <ellipse id="Oval" cx="445.517045" cy="0.498717949" rx="1" ry="1"></ellipse>
                        <ellipse id="Oval-Copy" cx="149.5125" cy="70.3192308" rx="1.51022727" ry="1.49615385"></ellipse>
                        <ellipse id="Oval-Copy-7" cx="0.503409091" cy="149.116667" rx="1" ry="1"></ellipse>
                        <ellipse id="Oval-Copy-4" cx="233.078409" cy="346.608974" rx="1" ry="1"></ellipse>
                        <ellipse id="Oval-Copy-2" cx="405.244318" cy="145.126923" rx="1" ry="1"></ellipse>
                        <ellipse id="Oval-Copy-3" cx="71.9875" cy="265.816667" rx="1" ry="1"></ellipse>
                        <ellipse id="Oval-Copy-5" cx="243.146591" cy="184.026923" rx="1" ry="1"></ellipse>
                        <ellipse id="Oval-Copy-6" cx="441.489773" cy="387.503846" rx="1" ry="1"></ellipse>
                    </g>
                </g>
                <g transform="translate(231.000000, 296.000000)">
                    <g id="stars">
                        <ellipse id="Oval" cx="445.517045" cy="0.498717949" rx="1" ry="1"></ellipse>
                        <ellipse id="Oval-Copy" cx="149.5125" cy="70.3192308" rx="1.51022727" ry="1.49615385"></ellipse>
                        <ellipse id="Oval-Copy-7" cx="0.503409091" cy="149.116667" rx="1" ry="1"></ellipse>
                        <ellipse id="Oval-Copy-4" cx="233.078409" cy="346.608974" rx="1" ry="1"></ellipse>
                        <ellipse id="Oval-Copy-2" cx="405.244318" cy="145.126923" rx="1" ry="1"></ellipse>
                        <ellipse id="Oval-Copy-3" cx="71.9875" cy="265.816667" rx="1" ry="1"></ellipse>
                        <ellipse id="Oval-Copy-5" cx="243.146591" cy="184.026923" rx="1" ry="1"></ellipse>
                        <ellipse id="Oval-Copy-6" cx="441.489773" cy="387.503846" rx="1" ry="1"></ellipse>
                    </g>
                </g>
                <g transform="translate(274.608918, 318.064866) rotate(-5.000000) translate(-274.608918, -318.064866) translate(53.108918, 123.564866)">
                    <g id="stars">
                        <ellipse id="Oval" cx="445.517045" cy="0.498717949" rx="1" ry="1"></ellipse>
                        <ellipse id="Oval-Copy" cx="149.5125" cy="70.3192308" rx="1.51022727" ry="1.49615385"></ellipse>
                        <ellipse id="Oval-Copy-7" cx="0.503409091" cy="149.116667" rx="1" ry="1"></ellipse>
                        <ellipse id="Oval-Copy-4" cx="233.078409" cy="346.608974" rx="1" ry="1"></ellipse>
                        <ellipse id="Oval-Copy-2" cx="405.244318" cy="145.126923" rx="1" ry="1"></ellipse>
                        <ellipse id="Oval-Copy-3" cx="71.9875" cy="265.816667" rx="1" ry="1"></ellipse>
                        <ellipse id="Oval-Copy-5" cx="243.146591" cy="184.026923" rx="1" ry="1"></ellipse>
                        <ellipse id="Oval-Copy-6" cx="441.489773" cy="387.503846" rx="1" ry="1"></ellipse>
                    </g>
                </g>
                <g>
                    <g id="stars">
                        <ellipse id="Oval" cx="445.517045" cy="0.498717949" rx="1" ry="1"></ellipse>
                        <ellipse id="Oval-Copy" cx="149.5125" cy="70.3192308" rx="1.51022727" ry="1.49615385"></ellipse>
                        <ellipse id="Oval-Copy-7" cx="0.503409091" cy="149.116667" rx="1" ry="1"></ellipse>
                        <ellipse id="Oval-Copy-4" cx="233.078409" cy="346.608974" rx="1" ry="1"></ellipse>
                        <ellipse id="Oval-Copy-2" cx="405.244318" cy="145.126923" rx="1" ry="1"></ellipse>
                        <ellipse id="Oval-Copy-3" cx="71.9875" cy="265.816667" rx="1" ry="1"></ellipse>
                        <ellipse id="Oval-Copy-5" cx="243.146591" cy="184.026923" rx="1" ry="1"></ellipse>
                        <ellipse id="Oval-Copy-6" cx="441.489773" cy="387.503846" rx="1" ry="1"></ellipse>
                    </g>
                </g>
                <g transform="translate(202.000000, 162.000000)">
                    <g id="stars">
                        <ellipse id="Oval" cx="445.517045" cy="0.498717949" rx="1" ry="1"></ellipse>
                        <ellipse id="Oval-Copy" cx="149.5125" cy="70.3192308" rx="1.51022727" ry="1.49615385"></ellipse>
                        <ellipse id="Oval-Copy-7" cx="0.503409091" cy="149.116667" rx="1" ry="1"></ellipse>
                        <ellipse id="Oval-Copy-4" cx="233.078409" cy="346.608974" rx="1" ry="1"></ellipse>
                        <ellipse id="Oval-Copy-2" cx="405.244318" cy="145.126923" rx="1" ry="1"></ellipse>
                        <ellipse id="Oval-Copy-3" cx="71.9875" cy="265.816667" rx="1" ry="1"></ellipse>
                        <ellipse id="Oval-Copy-5" cx="243.146591" cy="184.026923" rx="1" ry="1"></ellipse>
                        <ellipse id="Oval-Copy-6" cx="441.489773" cy="387.503846" rx="1" ry="1"></ellipse>
                    </g>
                </g>
                <g transform="translate(714.721258, 304.885111) scale(1, -1) rotate(62.000000) translate(-714.721258, -304.885111) translate(493.221258, 110.385111)">
                    <g id="stars">
                        <ellipse id="Oval" cx="445.517045" cy="0.498717949" rx="1" ry="1"></ellipse>
                        <ellipse id="Oval-Copy" cx="149.5125" cy="70.3192308" rx="1.51022727" ry="1.49615385"></ellipse>
                        <ellipse id="Oval-Copy-7" cx="0.503409091" cy="149.116667" rx="1" ry="1"></ellipse>
                        <ellipse id="Oval-Copy-4" cx="233.078409" cy="346.608974" rx="1" ry="1"></ellipse>
                        <ellipse id="Oval-Copy-2" cx="405.244318" cy="145.126923" rx="1" ry="1"></ellipse>
                        <ellipse id="Oval-Copy-3" cx="71.9875" cy="265.816667" rx="1" ry="1"></ellipse>
                        <ellipse id="Oval-Copy-5" cx="243.146591" cy="184.026923" rx="1" ry="1"></ellipse>
                        <ellipse id="Oval-Copy-6" cx="441.489773" cy="387.503846" rx="1" ry="1"></ellipse>
                    </g>
                </g>
                <g transform="translate(221.500000, 583.500000) scale(1, -1) translate(-221.500000, -583.500000) translate(0.000000, 389.000000)">
                    <g id="stars">
                        <ellipse id="Oval" cx="445.517045" cy="0.498717949" rx="1" ry="1"></ellipse>
                        <ellipse id="Oval-Copy" cx="149.5125" cy="70.3192308" rx="1.51022727" ry="1.49615385"></ellipse>
                        <ellipse id="Oval-Copy-7" cx="0.503409091" cy="149.116667" rx="1" ry="1"></ellipse>
                        <ellipse id="Oval-Copy-4" cx="233.078409" cy="346.608974" rx="1" ry="1"></ellipse>
                        <ellipse id="Oval-Copy-2" cx="405.244318" cy="145.126923" rx="1" ry="1"></ellipse>
                        <ellipse id="Oval-Copy-3" cx="71.9875" cy="265.816667" rx="1" ry="1"></ellipse>
                        <ellipse id="Oval-Copy-5" cx="243.146591" cy="184.026923" rx="1" ry="1"></ellipse>
                        <ellipse id="Oval-Copy-6" cx="441.489773" cy="387.503846" rx="1" ry="1"></ellipse>
                    </g>
                </g>
            </g>
        </g>
    </g>
</svg>