<?xml version="1.0" encoding="UTF-8"?>
<svg width="740px" height="430px" viewBox="0 0 740 430" version="1.1" xmlns="http://www.w3.org/2000/svg" xmlns:xlink="http://www.w3.org/1999/xlink">
    <!-- Generator: Sketch 53.2 (72643) - https://sketchapp.com -->
    <title>12 Hera Peacock Tail</title>
    <desc>Created with Sketch.</desc>
    <g id="12-Hera-Peacock-Tail" stroke="none" stroke-width="1" fill="none" fill-rule="evenodd">
        <g id="Group" transform="translate(0.000000, 30.000000)">
            <g id="12-Hera-Peacock-Feather" transform="translate(340.315828, 0.000000)">
                <path d="M29.6574385,3.12638804e-13 L49.4896272,164 L29.6574385,164 L49.4896272,170.895358 L59.30524,259.943146 L32.9646952,248 C50.5115862,258.662666 59.2917678,265.151644 59.30524,267.466934 C59.6680731,329.822311 49.7854727,361 29.6574385,361 C22.4872404,361 16.6171817,356.938919 12.0472625,348.876755 C11.4983361,347.908349 12.879173,345.121177 16.1897734,340.515238 C11.2184071,341.357128 8.58035976,341.357128 8.27563142,340.515238 C-0.0102758438,317.62328 -2.07403621,275.66951 2.08435033,215.282074 C2.20639729,213.509727 7.83490411,213.11901 18.9698708,214.109922 L2.08435033,210 L18.9698708,92 L26.845415,88.1560889 L18.9698708,88.1560889 L29.6574385,3.12638804e-13 Z" id="Path-5" fill="#307E40" transform="translate(29.657439, 180.500000) scale(1, -1) translate(-29.657439, -180.500000) "></path>
                <path d="M30,87 C42.8272587,87 53.2258065,72.0015391 53.2258065,53.5 C53.2258065,46.2004917 50.7638453,37.1647153 48.0160588,31.6617323 C47.8005293,31.2300922 45.5516307,32.7614271 41.2693628,36.2557371 C45.2257993,32.7406967 47.091797,30.812241 46.8673559,30.4703699 C42.6341336,24.0222816 36.6427322,20 30,20 C17.1727413,20 6.77419355,34.9984609 6.77419355,53.5 C6.77419355,72.0015391 17.1727413,87 30,87 Z" id="Oval" fill="#A87832"></path>
                <ellipse id="Oval" fill="#0076FF" cx="30" cy="62" rx="18.3870968" ry="19"></ellipse>
                <path d="M30,67.5776851 C38.0170367,67.5776851 44.516129,74.2058303 44.516129,63.8147376 C44.516129,53.423645 38.0170367,45 30,45 C21.9829633,45 15.483871,53.423645 15.483871,63.8147376 C15.483871,74.2058303 21.9829633,67.5776851 30,67.5776851 Z" id="Oval" fill="#201A75"></path>
            </g>
            <g id="12-Hera-Peacock-Feather" transform="translate(420.268183, 187.245067) rotate(15.000000) translate(-420.268183, -187.245067) translate(390.064102, 6.793939)">
                <path d="M29.6574385,3.12638804e-13 L49.4896272,164 L29.6574385,164 L49.4896272,170.895358 L59.30524,259.943146 L32.9646952,248 C50.5115862,258.662666 59.2917678,265.151644 59.30524,267.466934 C59.6680731,329.822311 49.7854727,361 29.6574385,361 C22.4872404,361 16.6171817,356.938919 12.0472625,348.876755 C11.4983361,347.908349 12.879173,345.121177 16.1897734,340.515238 C11.2184071,341.357128 8.58035976,341.357128 8.27563142,340.515238 C-0.0102758438,317.62328 -2.07403621,275.66951 2.08435033,215.282074 C2.20639729,213.509727 7.83490411,213.11901 18.9698708,214.109922 L2.08435033,210 L18.9698708,92 L26.845415,88.1560889 L18.9698708,88.1560889 L29.6574385,3.12638804e-13 Z" id="Path-5" fill="#307E40" transform="translate(29.657439, 180.500000) scale(1, -1) translate(-29.657439, -180.500000) "></path>
                <path d="M30,87 C42.8272587,87 53.2258065,72.0015391 53.2258065,53.5 C53.2258065,46.2004917 50.7638453,37.1647153 48.0160588,31.6617323 C47.8005293,31.2300922 45.5516307,32.7614271 41.2693628,36.2557371 C45.2257993,32.7406967 47.091797,30.812241 46.8673559,30.4703699 C42.6341336,24.0222816 36.6427322,20 30,20 C17.1727413,20 6.77419355,34.9984609 6.77419355,53.5 C6.77419355,72.0015391 17.1727413,87 30,87 Z" id="Oval" fill="#A87832"></path>
                <ellipse id="Oval" fill="#0076FF" cx="30" cy="62" rx="18.3870968" ry="19"></ellipse>
                <path d="M30,67.5776851 C38.0170367,67.5776851 44.516129,74.2058303 44.516129,63.8147376 C44.516129,53.423645 38.0170367,45 30,45 C21.9829633,45 15.483871,53.423645 15.483871,63.8147376 C15.483871,74.2058303 21.9829633,67.5776851 30,67.5776851 Z" id="Oval" fill="#201A75"></path>
            </g>
            <g id="12-Hera-Peacock-Feather" transform="translate(466.850458, 206.471636) rotate(30.000000) translate(-466.850458, -206.471636) translate(436.646376, 26.020508)">
                <path d="M29.6574385,3.12638804e-13 L49.4896272,164 L29.6574385,164 L49.4896272,170.895358 L59.30524,259.943146 L32.9646952,248 C50.5115862,258.662666 59.2917678,265.151644 59.30524,267.466934 C59.6680731,329.822311 49.7854727,361 29.6574385,361 C22.4872404,361 16.6171817,356.938919 12.0472625,348.876755 C11.4983361,347.908349 12.879173,345.121177 16.1897734,340.515238 C11.2184071,341.357128 8.58035976,341.357128 8.27563142,340.515238 C-0.0102758438,317.62328 -2.07403621,275.66951 2.08435033,215.282074 C2.20639729,213.509727 7.83490411,213.11901 18.9698708,214.109922 L2.08435033,210 L18.9698708,92 L26.845415,88.1560889 L18.9698708,88.1560889 L29.6574385,3.12638804e-13 Z" id="Path-5" fill="#307E40" transform="translate(29.657439, 180.500000) scale(1, -1) translate(-29.657439, -180.500000) "></path>
                <path d="M30,87 C42.8272587,87 53.2258065,72.0015391 53.2258065,53.5 C53.2258065,46.2004917 50.7638453,37.1647153 48.0160588,31.6617323 C47.8005293,31.2300922 45.5516307,32.7614271 41.2693628,36.2557371 C45.2257993,32.7406967 47.091797,30.812241 46.8673559,30.4703699 C42.6341336,24.0222816 36.6427322,20 30,20 C17.1727413,20 6.77419355,34.9984609 6.77419355,53.5 C6.77419355,72.0015391 17.1727413,87 30,87 Z" id="Oval" fill="#A87832"></path>
                <ellipse id="Oval" fill="#0076FF" cx="30" cy="62" rx="18.3870968" ry="19"></ellipse>
                <path d="M30,67.5776851 C38.0170367,67.5776851 44.516129,74.2058303 44.516129,63.8147376 C44.516129,53.423645 38.0170367,45 30,45 C21.9829633,45 15.483871,53.423645 15.483871,63.8147376 C15.483871,74.2058303 21.9829633,67.5776851 30,67.5776851 Z" id="Oval" fill="#201A75"></path>
            </g>
            <g id="12-Hera-Peacock-Feather" transform="translate(506.578493, 237.155670) rotate(45.000000) translate(-506.578493, -237.155670) translate(476.374412, 56.704543)">
                <path d="M29.6574385,3.12638804e-13 L49.4896272,164 L29.6574385,164 L49.4896272,170.895358 L59.30524,259.943146 L32.9646952,248 C50.5115862,258.662666 59.2917678,265.151644 59.30524,267.466934 C59.6680731,329.822311 49.7854727,361 29.6574385,361 C22.4872404,361 16.6171817,356.938919 12.0472625,348.876755 C11.4983361,347.908349 12.879173,345.121177 16.1897734,340.515238 C11.2184071,341.357128 8.58035976,341.357128 8.27563142,340.515238 C-0.0102758438,317.62328 -2.07403621,275.66951 2.08435033,215.282074 C2.20639729,213.509727 7.83490411,213.11901 18.9698708,214.109922 L2.08435033,210 L18.9698708,92 L26.845415,88.1560889 L18.9698708,88.1560889 L29.6574385,3.12638804e-13 Z" id="Path-5" fill="#307E40" transform="translate(29.657439, 180.500000) scale(1, -1) translate(-29.657439, -180.500000) "></path>
                <path d="M30,87 C42.8272587,87 53.2258065,72.0015391 53.2258065,53.5 C53.2258065,46.2004917 50.7638453,37.1647153 48.0160588,31.6617323 C47.8005293,31.2300922 45.5516307,32.7614271 41.2693628,36.2557371 C45.2257993,32.7406967 47.091797,30.812241 46.8673559,30.4703699 C42.6341336,24.0222816 36.6427322,20 30,20 C17.1727413,20 6.77419355,34.9984609 6.77419355,53.5 C6.77419355,72.0015391 17.1727413,87 30,87 Z" id="Oval" fill="#A87832"></path>
                <ellipse id="Oval" fill="#0076FF" cx="30" cy="62" rx="18.3870968" ry="19"></ellipse>
                <path d="M30,67.5776851 C38.0170367,67.5776851 44.516129,74.2058303 44.516129,63.8147376 C44.516129,53.423645 38.0170367,45 30,45 C21.9829633,45 15.483871,53.423645 15.483871,63.8147376 C15.483871,74.2058303 21.9829633,67.5776851 30,67.5776851 Z" id="Oval" fill="#201A75"></path>
            </g>
            <g id="12-Hera-Peacock-Feather" transform="translate(537.498795, 276.893496) rotate(60.000000) translate(-537.498795, -276.893496) translate(507.294713, 96.442368)">
                <path d="M29.6574385,3.12638804e-13 L49.4896272,164 L29.6574385,164 L49.4896272,170.895358 L59.30524,259.943146 L32.9646952,248 C50.5115862,258.662666 59.2917678,265.151644 59.30524,267.466934 C59.6680731,329.822311 49.7854727,361 29.6574385,361 C22.4872404,361 16.6171817,356.938919 12.0472625,348.876755 C11.4983361,347.908349 12.879173,345.121177 16.1897734,340.515238 C11.2184071,341.357128 8.58035976,341.357128 8.27563142,340.515238 C-0.0102758438,317.62328 -2.07403621,275.66951 2.08435033,215.282074 C2.20639729,213.509727 7.83490411,213.11901 18.9698708,214.109922 L2.08435033,210 L18.9698708,92 L26.845415,88.1560889 L18.9698708,88.1560889 L29.6574385,3.12638804e-13 Z" id="Path-5" fill="#307E40" transform="translate(29.657439, 180.500000) scale(1, -1) translate(-29.657439, -180.500000) "></path>
                <path d="M30,87 C42.8272587,87 53.2258065,72.0015391 53.2258065,53.5 C53.2258065,46.2004917 50.7638453,37.1647153 48.0160588,31.6617323 C47.8005293,31.2300922 45.5516307,32.7614271 41.2693628,36.2557371 C45.2257993,32.7406967 47.091797,30.812241 46.8673559,30.4703699 C42.6341336,24.0222816 36.6427322,20 30,20 C17.1727413,20 6.77419355,34.9984609 6.77419355,53.5 C6.77419355,72.0015391 17.1727413,87 30,87 Z" id="Oval" fill="#A87832"></path>
                <ellipse id="Oval" fill="#0076FF" cx="30" cy="62" rx="18.3870968" ry="19"></ellipse>
                <path d="M30,67.5776851 C38.0170367,67.5776851 44.516129,74.2058303 44.516129,63.8147376 C44.516129,53.423645 38.0170367,45 30,45 C21.9829633,45 15.483871,53.423645 15.483871,63.8147376 C15.483871,74.2058303 21.9829633,67.5776851 30,67.5776851 Z" id="Oval" fill="#201A75"></path>
            </g>
            <g id="12-Hera-Peacock-Feather" transform="translate(556.665849, 323.294491) rotate(75.000000) translate(-556.665849, -323.294491) translate(526.461767, 142.843364)">
                <path d="M29.6574385,3.12638804e-13 L49.4896272,164 L29.6574385,164 L49.4896272,170.895358 L59.30524,259.943146 L32.9646952,248 C50.5115862,258.662666 59.2917678,265.151644 59.30524,267.466934 C59.6680731,329.822311 49.7854727,361 29.6574385,361 C22.4872404,361 16.6171817,356.938919 12.0472625,348.876755 C11.4983361,347.908349 12.879173,345.121177 16.1897734,340.515238 C11.2184071,341.357128 8.58035976,341.357128 8.27563142,340.515238 C-0.0102758438,317.62328 -2.07403621,275.66951 2.08435033,215.282074 C2.20639729,213.509727 7.83490411,213.11901 18.9698708,214.109922 L2.08435033,210 L18.9698708,92 L26.845415,88.1560889 L18.9698708,88.1560889 L29.6574385,3.12638804e-13 Z" id="Path-5" fill="#307E40" transform="translate(29.657439, 180.500000) scale(1, -1) translate(-29.657439, -180.500000) "></path>
                <path d="M30,87 C42.8272587,87 53.2258065,72.0015391 53.2258065,53.5 C53.2258065,46.2004917 50.7638453,37.1647153 48.0160588,31.6617323 C47.8005293,31.2300922 45.5516307,32.7614271 41.2693628,36.2557371 C45.2257993,32.7406967 47.091797,30.812241 46.8673559,30.4703699 C42.6341336,24.0222816 36.6427322,20 30,20 C17.1727413,20 6.77419355,34.9984609 6.77419355,53.5 C6.77419355,72.0015391 17.1727413,87 30,87 Z" id="Oval" fill="#A87832"></path>
                <ellipse id="Oval" fill="#0076FF" cx="30" cy="62" rx="18.3870968" ry="19"></ellipse>
                <path d="M30,67.5776851 C38.0170367,67.5776851 44.516129,74.2058303 44.516129,63.8147376 C44.516129,53.423645 38.0170367,45 30,45 C21.9829633,45 15.483871,53.423645 15.483871,63.8147376 C15.483871,74.2058303 21.9829633,67.5776851 30,67.5776851 Z" id="Oval" fill="#201A75"></path>
            </g>
            <g id="12-Hera-Peacock-Feather" transform="translate(319.635761, 187.366777) scale(-1, 1) rotate(15.000000) translate(-319.635761, -187.366777) translate(289.431679, 6.915649)">
                <path d="M29.6574385,3.12638804e-13 L49.4896272,164 L29.6574385,164 L49.4896272,170.895358 L59.30524,259.943146 L32.9646952,248 C50.5115862,258.662666 59.2917678,265.151644 59.30524,267.466934 C59.6680731,329.822311 49.7854727,361 29.6574385,361 C22.4872404,361 16.6171817,356.938919 12.0472625,348.876755 C11.4983361,347.908349 12.879173,345.121177 16.1897734,340.515238 C11.2184071,341.357128 8.58035976,341.357128 8.27563142,340.515238 C-0.0102758438,317.62328 -2.07403621,275.66951 2.08435033,215.282074 C2.20639729,213.509727 7.83490411,213.11901 18.9698708,214.109922 L2.08435033,210 L18.9698708,92 L26.845415,88.1560889 L18.9698708,88.1560889 L29.6574385,3.12638804e-13 Z" id="Path-5" fill="#307E40" transform="translate(29.657439, 180.500000) scale(1, -1) translate(-29.657439, -180.500000) "></path>
                <path d="M30,87 C42.8272587,87 53.2258065,72.0015391 53.2258065,53.5 C53.2258065,46.2004917 50.7638453,37.1647153 48.0160588,31.6617323 C47.8005293,31.2300922 45.5516307,32.7614271 41.2693628,36.2557371 C45.2257993,32.7406967 47.091797,30.812241 46.8673559,30.4703699 C42.6341336,24.0222816 36.6427322,20 30,20 C17.1727413,20 6.77419355,34.9984609 6.77419355,53.5 C6.77419355,72.0015391 17.1727413,87 30,87 Z" id="Oval" fill="#A87832"></path>
                <ellipse id="Oval" fill="#0076FF" cx="30" cy="62" rx="18.3870968" ry="19"></ellipse>
                <path d="M30,67.5776851 C38.0170367,67.5776851 44.516129,74.2058303 44.516129,63.8147376 C44.516129,53.423645 38.0170367,45 30,45 C21.9829633,45 15.483871,53.423645 15.483871,63.8147376 C15.483871,74.2058303 21.9829633,67.5776851 30,67.5776851 Z" id="Oval" fill="#201A75"></path>
            </g>
            <g id="12-Hera-Peacock-Feather" transform="translate(273.053486, 206.593345) scale(-1, 1) rotate(30.000000) translate(-273.053486, -206.593345) translate(242.849405, 26.142217)">
                <path d="M29.6574385,3.12638804e-13 L49.4896272,164 L29.6574385,164 L49.4896272,170.895358 L59.30524,259.943146 L32.9646952,248 C50.5115862,258.662666 59.2917678,265.151644 59.30524,267.466934 C59.6680731,329.822311 49.7854727,361 29.6574385,361 C22.4872404,361 16.6171817,356.938919 12.0472625,348.876755 C11.4983361,347.908349 12.879173,345.121177 16.1897734,340.515238 C11.2184071,341.357128 8.58035976,341.357128 8.27563142,340.515238 C-0.0102758438,317.62328 -2.07403621,275.66951 2.08435033,215.282074 C2.20639729,213.509727 7.83490411,213.11901 18.9698708,214.109922 L2.08435033,210 L18.9698708,92 L26.845415,88.1560889 L18.9698708,88.1560889 L29.6574385,3.12638804e-13 Z" id="Path-5" fill="#307E40" transform="translate(29.657439, 180.500000) scale(1, -1) translate(-29.657439, -180.500000) "></path>
                <path d="M30,87 C42.8272587,87 53.2258065,72.0015391 53.2258065,53.5 C53.2258065,46.2004917 50.7638453,37.1647153 48.0160588,31.6617323 C47.8005293,31.2300922 45.5516307,32.7614271 41.2693628,36.2557371 C45.2257993,32.7406967 47.091797,30.812241 46.8673559,30.4703699 C42.6341336,24.0222816 36.6427322,20 30,20 C17.1727413,20 6.77419355,34.9984609 6.77419355,53.5 C6.77419355,72.0015391 17.1727413,87 30,87 Z" id="Oval" fill="#A87832"></path>
                <ellipse id="Oval" fill="#0076FF" cx="30" cy="62" rx="18.3870968" ry="19"></ellipse>
                <path d="M30,67.5776851 C38.0170367,67.5776851 44.516129,74.2058303 44.516129,63.8147376 C44.516129,53.423645 38.0170367,45 30,45 C21.9829633,45 15.483871,53.423645 15.483871,63.8147376 C15.483871,74.2058303 21.9829633,67.5776851 30,67.5776851 Z" id="Oval" fill="#201A75"></path>
            </g>
            <g id="12-Hera-Peacock-Feather" transform="translate(233.325451, 237.277380) scale(-1, 1) rotate(45.000000) translate(-233.325451, -237.277380) translate(203.121369, 56.826252)">
                <path d="M29.6574385,3.12638804e-13 L49.4896272,164 L29.6574385,164 L49.4896272,170.895358 L59.30524,259.943146 L32.9646952,248 C50.5115862,258.662666 59.2917678,265.151644 59.30524,267.466934 C59.6680731,329.822311 49.7854727,361 29.6574385,361 C22.4872404,361 16.6171817,356.938919 12.0472625,348.876755 C11.4983361,347.908349 12.879173,345.121177 16.1897734,340.515238 C11.2184071,341.357128 8.58035976,341.357128 8.27563142,340.515238 C-0.0102758438,317.62328 -2.07403621,275.66951 2.08435033,215.282074 C2.20639729,213.509727 7.83490411,213.11901 18.9698708,214.109922 L2.08435033,210 L18.9698708,92 L26.845415,88.1560889 L18.9698708,88.1560889 L29.6574385,3.12638804e-13 Z" id="Path-5" fill="#307E40" transform="translate(29.657439, 180.500000) scale(1, -1) translate(-29.657439, -180.500000) "></path>
                <path d="M30,87 C42.8272587,87 53.2258065,72.0015391 53.2258065,53.5 C53.2258065,46.2004917 50.7638453,37.1647153 48.0160588,31.6617323 C47.8005293,31.2300922 45.5516307,32.7614271 41.2693628,36.2557371 C45.2257993,32.7406967 47.091797,30.812241 46.8673559,30.4703699 C42.6341336,24.0222816 36.6427322,20 30,20 C17.1727413,20 6.77419355,34.9984609 6.77419355,53.5 C6.77419355,72.0015391 17.1727413,87 30,87 Z" id="Oval" fill="#A87832"></path>
                <ellipse id="Oval" fill="#0076FF" cx="30" cy="62" rx="18.3870968" ry="19"></ellipse>
                <path d="M30,67.5776851 C38.0170367,67.5776851 44.516129,74.2058303 44.516129,63.8147376 C44.516129,53.423645 38.0170367,45 30,45 C21.9829633,45 15.483871,53.423645 15.483871,63.8147376 C15.483871,74.2058303 21.9829633,67.5776851 30,67.5776851 Z" id="Oval" fill="#201A75"></path>
            </g>
            <g id="12-Hera-Peacock-Feather" transform="translate(202.405149, 277.015205) scale(-1, 1) rotate(60.000000) translate(-202.405149, -277.015205) translate(172.201068, 96.564077)">
                <path d="M29.6574385,3.12638804e-13 L49.4896272,164 L29.6574385,164 L49.4896272,170.895358 L59.30524,259.943146 L32.9646952,248 C50.5115862,258.662666 59.2917678,265.151644 59.30524,267.466934 C59.6680731,329.822311 49.7854727,361 29.6574385,361 C22.4872404,361 16.6171817,356.938919 12.0472625,348.876755 C11.4983361,347.908349 12.879173,345.121177 16.1897734,340.515238 C11.2184071,341.357128 8.58035976,341.357128 8.27563142,340.515238 C-0.0102758438,317.62328 -2.07403621,275.66951 2.08435033,215.282074 C2.20639729,213.509727 7.83490411,213.11901 18.9698708,214.109922 L2.08435033,210 L18.9698708,92 L26.845415,88.1560889 L18.9698708,88.1560889 L29.6574385,3.12638804e-13 Z" id="Path-5" fill="#307E40" transform="translate(29.657439, 180.500000) scale(1, -1) translate(-29.657439, -180.500000) "></path>
                <path d="M30,87 C42.8272587,87 53.2258065,72.0015391 53.2258065,53.5 C53.2258065,46.2004917 50.7638453,37.1647153 48.0160588,31.6617323 C47.8005293,31.2300922 45.5516307,32.7614271 41.2693628,36.2557371 C45.2257993,32.7406967 47.091797,30.812241 46.8673559,30.4703699 C42.6341336,24.0222816 36.6427322,20 30,20 C17.1727413,20 6.77419355,34.9984609 6.77419355,53.5 C6.77419355,72.0015391 17.1727413,87 30,87 Z" id="Oval" fill="#A87832"></path>
                <ellipse id="Oval" fill="#0076FF" cx="30" cy="62" rx="18.3870968" ry="19"></ellipse>
                <path d="M30,67.5776851 C38.0170367,67.5776851 44.516129,74.2058303 44.516129,63.8147376 C44.516129,53.423645 38.0170367,45 30,45 C21.9829633,45 15.483871,53.423645 15.483871,63.8147376 C15.483871,74.2058303 21.9829633,67.5776851 30,67.5776851 Z" id="Oval" fill="#201A75"></path>
            </g>
            <g id="12-Hera-Peacock-Feather" transform="translate(183.238095, 323.416201) scale(-1, 1) rotate(75.000000) translate(-183.238095, -323.416201) translate(153.034014, 142.965073)">
                <path d="M29.6574385,3.12638804e-13 L49.4896272,164 L29.6574385,164 L49.4896272,170.895358 L59.30524,259.943146 L32.9646952,248 C50.5115862,258.662666 59.2917678,265.151644 59.30524,267.466934 C59.6680731,329.822311 49.7854727,361 29.6574385,361 C22.4872404,361 16.6171817,356.938919 12.0472625,348.876755 C11.4983361,347.908349 12.879173,345.121177 16.1897734,340.515238 C11.2184071,341.357128 8.58035976,341.357128 8.27563142,340.515238 C-0.0102758438,317.62328 -2.07403621,275.66951 2.08435033,215.282074 C2.20639729,213.509727 7.83490411,213.11901 18.9698708,214.109922 L2.08435033,210 L18.9698708,92 L26.845415,88.1560889 L18.9698708,88.1560889 L29.6574385,3.12638804e-13 Z" id="Path-5" fill="#307E40" transform="translate(29.657439, 180.500000) scale(1, -1) translate(-29.657439, -180.500000) "></path>
                <path d="M30,87 C42.8272587,87 53.2258065,72.0015391 53.2258065,53.5 C53.2258065,46.2004917 50.7638453,37.1647153 48.0160588,31.6617323 C47.8005293,31.2300922 45.5516307,32.7614271 41.2693628,36.2557371 C45.2257993,32.7406967 47.091797,30.812241 46.8673559,30.4703699 C42.6341336,24.0222816 36.6427322,20 30,20 C17.1727413,20 6.77419355,34.9984609 6.77419355,53.5 C6.77419355,72.0015391 17.1727413,87 30,87 Z" id="Oval" fill="#A87832"></path>
                <ellipse id="Oval" fill="#0076FF" cx="30" cy="62" rx="18.3870968" ry="19"></ellipse>
                <path d="M30,67.5776851 C38.0170367,67.5776851 44.516129,74.2058303 44.516129,63.8147376 C44.516129,53.423645 38.0170367,45 30,45 C21.9829633,45 15.483871,53.423645 15.483871,63.8147376 C15.483871,74.2058303 21.9829633,67.5776851 30,67.5776851 Z" id="Oval" fill="#201A75"></path>
            </g>
        </g>
    </g>
</svg>